<svg xmlns="http://www.w3.org/2000/svg" height="127.04" width="127.05" version="1.1" viewBox="0 0 33.614418 33.613459">
 <g transform="translate(-90.845 -191.99)">
  <flowRoot style="word-spacing:0px;letter-spacing:0px" xml:space="preserve" font-size="40px" transform="matrix(.26458 0 0 .26458 62.862 68.628)" line-height="1.25" font-family="Roboto" fill="#000000"><flowRegion><rect y="328" width="130" x="3594" height="140"/></flowRegion><flowPara/></flowRoot>
  <g transform="matrix(.98797 0 0 .98797 2.7189 2.8176)">
   <g transform="matrix(.73846 0 0 .73846 83.622 26.984)">
    <g transform="matrix(.84214 0 0 .84214 15.456 61.924)">
     <g transform="matrix(1.3677 0 0 1.3677 -122.74 -51.147)">
      <path fill="#fff" d="m103.32 183.61-5.0837 1.4542-6.6051 14.298 3.3982 1.0336 3.2069-6.7263v2.8437l-1.7926 12.707h13.753l-1.7926-12.707v-2.8437l3.2069 6.7263 3.3982-1.0336-6.6051-14.298z"/>
      <path d="m100.28 183.12c-0.15118 1.216-0.20278 2.4719-0.13351 3.7761l1.0418-0.33073-0.1323 0.59532c0.81928 0.53712 1.532 0.8611 2.2681 1.2318l-0.89764-3.9826z" fill="#e6e6e6"/>
      <path d="m106.37 183.12c0.15118 1.216 0.20278 2.4719 0.13351 3.7761l-1.0418-0.33073 0.1323 0.59532c-0.81928 0.53712-1.532 0.8611-2.2681 1.2318l0.89764-3.9826z" fill="#e6e6e6"/>
      <path d="m103.32 188.39c-1.2444-1.2216-2.3572-2.7499-3.044-5.2724 0.90888-0.34282 1.7934-0.71003 3.044-0.71107m0 5.9835c1.2444-1.2216 2.3572-2.7499 3.044-5.2724-0.90888-0.34282-1.7934-0.71003-3.044-0.71107" fill="#b3b3b3"/>
      <path d="m104.59 189.82v2.0525c0 0.80489 0.65251 1.4574 1.4574 1.4574s1.4574-0.65251 1.4574-1.4574v-2.0525z" fill="#b3b3b3"/>
     </g>
    </g>
   </g>
  </g>
 </g>
</svg>
