<svg xmlns="http://www.w3.org/2000/svg" height="1080" width="768" version="1.1" viewBox="0 0 203.2 285.75">
 <path d="m53.678 53.016c4.3774 0.0068 8.9291 4.7254 8.8453 9.7621-0.14 8.411-10.397 18.834-18.844 23.593-8.447-4.759-18.663-15.182-18.803-23.593-0.08384-5.0367 4.4679-9.7553 8.8453-9.7621 4.8534-0.0078 7.9341 2.7533 9.9785 6.7007 2.0444-3.9474 5.1251-6.7085 9.9785-6.7007z" stroke="none"/>
 <path d="m27.952 89.546c2.2814 0.004 4.6537 2.4628 4.61 5.0878-0.07296 4.3834-5.4187 9.816-9.8211 12.296-4.4024-2.4801-9.7272-7.9127-9.8002-12.296-0.04369-2.625 2.3286-5.0843 4.61-5.0878 2.5295-0.004 4.1351 1.435 5.2006 3.4923 1.0655-2.0573 2.6711-3.4964 5.2006-3.4923z" stroke="none"/>
</svg>
