<svg xmlns="http://www.w3.org/2000/svg" height="448" width="512" version="1.1" viewBox="0 0 135.46667 118.53334">
 <g transform="matrix(4.0429 0 0 4.0429 -178.36 -722.01)">
  <path d="m261 705.88a74.375 24.5 0 0 0 -74.375 24.5 74.375 24.5 0 0 0 74.375 24.5 74.375 24.5 0 0 0 74.375 -24.5 74.375 24.5 0 0 0 -74.38 -24.5zm0 2a68.189 22.5 0 0 1 68.189 22.5 68.189 22.5 0 0 1 -68.19 22.5 68.189 22.5 0 0 1 -68.19 -22.5 68.189 22.5 0 0 1 68.19 -22.5z" transform="scale(.26458)"/>
  <circle cy="192.55" cx="66.086" r="2.1806"/>
  <circle cy="194.73" cx="68.434" r="2.1806"/>
  <circle cy="193.91" cx="72.006" r="2.1806"/>
  <circle cy="191.72" cx="69.658" r="2.1806"/>
  <path d="m63.442 190a6.4823 19.678 30 0 0 -4.225 20.28 6.4823 19.678 30 0 0 15.453 -13.8 6.4823 19.678 30 0 0 4.225 -20.28 6.4823 19.678 30 0 0 -15.453 13.8zm0.45826 0.26457a5.9531 18.042 30 0 1 14.176 -12.648 5.9531 18.042 30 0 1 -3.8653 18.601 5.9531 18.042 30 0 1 -14.176 12.648 5.9531 18.042 30 0 1 3.8653 -18.601z"/>
  <path d="m63.442 196.49a19.678 6.4823 60 0 0 15.453 13.801 19.678 6.4823 60 0 0 -4.2254 -20.283 19.678 6.4823 60 0 0 -15.453 -13.801 19.678 6.4823 60 0 0 4.2254 20.283zm0.45826-0.26459a18.042 5.9531 60 0 1 -3.8653 -18.601 18.042 5.9531 60 0 1 14.176 12.648 18.042 5.9531 60 0 1 3.8653 18.601 18.042 5.9531 60 0 1 -14.176 -12.648z"/>
 </g>
</svg>
