<svg xmlns="http://www.w3.org/2000/svg" height="1080" width="768" version="1.1" viewBox="0 0 203.2 285.75">
 <path fill="#a20" d="m162.01 129.24a7.1235 7.1235 0 0 0 -1.6533 14.087v46.188l-36.198 37.947a8.7256 8.7256 0 0 0 -0.006 0.006c-4.4271 4.647-5.747 11.996-3.2202 17.896 2.5269 5.9 8.7527 10.012 15.171 10.014a8.7256 8.7256 0 0 0 0.006 0h83.265a8.7256 8.7256 0 0 0 0.006 0c6.4183-0.002 12.644-4.1145 15.171-10.014 2.5269-5.9 1.207-13.249-3.2202-17.896a8.7256 8.7256 0 0 0 -0.006 -0.006l-36.196-37.935v-46.201a7.1235 7.1235 0 0 0 -1.6575 -14.087zm6.3271 14.241h18.812v50.322l22.507 23.59h-63.832l22.513-23.602v-12.133z"/>
</svg>
