<svg xmlns="http://www.w3.org/2000/svg" data-name="Layer 1" height="36" width="115.83" version="1.1" viewBox="1 0 115.83443 35.999992">
 <g transform="matrix(.31443 0 0 .31443 1 -6.2002)">
  <path d="m179.08 296.65a0.92 0.92 0 0 1 0.92 -0.92h11a10.8 10.8 0 1 1 0 21.6h-7v11.38a1 1 0 0 1 -0.92 0.92h-3.08a0.92 0.92 0 0 1 -0.92 -0.92zm11.68 15.94a6.17 6.17 0 0 0 6.15 -6.2 6 6 0 0 0 -6.15 -5.81h-6.69v12z" transform="translate(-179.08,-226.44)"/>
  <path d="m211.72 296.65a0.92 0.92 0 0 1 0.92 -0.92h13.17a10.45 10.45 0 0 1 10.56 10.36c0 4.46-3 8.14-7.17 9.83l6.64 12.3a0.92 0.92 0 0 1 -0.82 1.41h-3.78a0.9 0.9 0 0 1 -0.78 -0.43l-6.46-12.84h-7.32v12.35a1 1 0 0 1 -0.92 0.92h-3.15a0.92 0.92 0 0 1 -0.92 -0.92zm13.71 15.55a6 6 0 0 0 5.91 -6 5.94 5.94 0 0 0 -5.91 -5.76h-8.62v11.76z" transform="translate(-179.08,-226.44)"/>
  <path d="m262.72 295.25a17.44 17.44 0 1 1 -17.39 17.49 17.4 17.4 0 0 1 17.39 -17.49zm0 30a12.59 12.59 0 1 0 -12.54 -12.54 12.59 12.59 0 0 0 12.54 12.57z" transform="translate(-179.08,-226.44)"/>
  <path d="m285 325.37 1.74-1.89a1 1 0 0 1 1.55 0.1 5.47 5.47 0 0 0 4 2.08c2.38 0 4.9-1.84 4.9-6.1v-22.91a0.92 0.92 0 0 1 0.92 -0.92h3.2a0.92 0.92 0 0 1 0.92 0.92v22.86c0 6.73-4.26 10.61-9.93 10.61a9.29 9.29 0 0 1 -7.36 -3.53 1 1 0 0 1 0.06 -1.22z" transform="translate(-179.08,-226.44)"/>
  <path d="m314.26 296.65a0.92 0.92 0 0 1 0.92 -0.92h19.37a0.92 0.92 0 0 1 0.92 0.92v2.71a0.92 0.92 0 0 1 -0.92 0.92h-15.3v9.88h12.93a1 1 0 0 1 0.92 0.92v2.71a0.92 0.92 0 0 1 -0.92 0.92h-12.93v10.41h15.31a0.92 0.92 0 0 1 0.92 0.92v2.66a0.92 0.92 0 0 1 -0.92 0.92h-19.38a0.92 0.92 0 0 1 -0.92 -0.92z" transform="translate(-179.08,-226.44)"/>
  <path d="m361.54 295.25a16.82 16.82 0 0 1 11.72 4.51 0.9 0.9 0 0 1 0 1.36l-2.13 2.18c-0.34 0.44-0.78 0.44-1.21 0a13.15 13.15 0 0 0 -8.38 -3.24 12.57 12.57 0 0 0 0 25.13 13 13 0 0 0 8.46 -3.19 0.89 0.89 0 0 1 1.16 0l2.23 2.18a0.92 0.92 0 0 1 0 1.31 16.61 16.61 0 0 1 -11.77 4.7 17.44 17.44 0 1 1 0 -34.87z" transform="translate(-179.08,-226.44)"/>
  <path d="m388.76 300.28h-7.89a0.92 0.92 0 0 1 -0.92 -0.92v-2.71a0.92 0.92 0 0 1 0.92 -0.92h20.82a0.92 0.92 0 0 1 0.92 0.92v2.71a0.92 0.92 0 0 1 -0.92 0.92h-7.89v28.43a1 1 0 0 1 -0.92 0.92h-3.2a1 1 0 0 1 -0.92 -0.92z" transform="translate(-179.08,-226.44)"/>
 </g>
 <g stroke-width=".18252">
  <path d="m74.623 24.874 0.26283-0.41797a0.30481 0.30481 0 0 1 0.4709 -0.0274 4.6415 4.6415 0 0 0 2.7998 1.0221c1.4912 0 2.5133-0.83776 2.5133-1.858 0-1.2046-1.1772-1.7011-2.9312-2.3563-1.858-0.65524-3.2196-1.4602-3.2196-3.0882 0-1.1517 1.0203-2.7232 3.4295-2.7232a5.5248 5.5248 0 0 1 2.9586 0.83776 0.36504 0.36504 0 0 1 0.10403 0.49645l-0.15696 0.28838a0.35226 0.35226 0 0 1 -0.49646 0.13141 4.9426 4.9426 0 0 0 -2.4074 -0.73008c-1.6427 0-2.2523 0.96918-2.2523 1.6755 0 1.0477 0.9418 1.5441 2.4859 2.0953 1.9639 0.73008 3.6905 1.3872 3.6905 3.2981 0 1.5715-1.6226 2.9057-3.7179 2.9057a5.3368 5.3368 0 0 1 -3.4332 -1.1827 0.2902 0.2902 0 0 1 -0.10039 -0.36687z"/>
  <path d="m90.671 15.423c2.0424 0 3.404 1.0477 3.8749 1.6427a0.31393 0.31393 0 0 1 -0.0511 0.4709l-0.26283 0.261c-0.18252 0.18252-0.39241 0.10404-0.54755-0.05111a4.333 4.333 0 0 0 -7.33 3.1412c0 2.5388 1.9639 4.4243 4.2928 4.4243a4.229 4.229 0 0 0 3.2726 -1.5441c0.18252-0.2099 0.33949-0.2099 0.49646-0.0529l0.28838 0.26283c0.13141 0.13141 0.18251 0.26282 0.0785 0.41796-0.39242 0.62787-1.9365 2.0077-4.1103 2.0077a5.4975 5.4975 0 0 1 0 -10.995z"/>
  <path d="m99.022 16.025a0.34679 0.34679 0 0 1 0.34131 -0.33948h0.4709a0.34679 0.34679 0 0 1 0.34131 0.33948v9.7903a0.30481 0.30481 0 0 1 -0.34131 0.33948h-0.52383a0.30481 0.30481 0 0 1 -0.28838 -0.33948z"/>
  <path d="m113.6 16.233h0.81221a0.34496 0.34496 0 0 1 0.33948 0.33948v5.5449l2.0588 3.7763a0.18252 0.18252 0 0 1 0 0.18252 0.18252 0.18252 0 0 1 -0.15149 0.0876h-2.7378a0.076658 0.076658 0 0 1 -0.0292 0h-0.0164a0.040154 0.040154 0 0 1 -0.0219 0 0.34131 0.34131 0 0 1 -0.25735 -0.32671v-9.1314"/>
  <path d="m112.39 16.706h-5.3843v9.1095a0.34861 0.34861 0 0 1 -0.34131 0.34131h-2.79a0.18252 0.18252 0 0 1 -0.15149 -0.0876 0.18252 0.18252 0 0 1 0 -0.18252l2.1501-3.9424v-5.2383h-1.7029c-0.261 0-0.34131-0.18252-0.34131-0.39424v-0.28656a0.33036 0.33036 0 0 1 0.34131 -0.33948h1.7029v-0.02555h0.15697v-0.04563c0-1.4784-0.009-3.2361 0.0548-5.0174a42.843 42.843 0 0 1 0.36503 -4.4973c0.19347-1.3652 0.4782-2.5936 0.89252-3.5317 0.73008-1.6609 2.057-2.6356 3.4679-2.5644 1.3725 0.07666 2.5096 1.1261 3.0371 2.8071a18.301 18.301 0 0 1 0.68445 3.2853 27.788 27.788 0 0 1 0.18251 3.9552 0.41797 0.41797 0 0 1 -0.42892 0.42527 0.41249 0.41249 0 0 1 -0.41431 -0.41614v-1.1961a24.823 24.823 0 0 0 -0.18252 -2.7652 17.441 17.441 0 0 0 -0.65889 -3.0335 4.7163 4.7163 0 0 0 -0.2245 -0.57676 3.5098 3.5098 0 0 0 -0.37782 -0.64429c-0.44352-0.60414-1.0258-0.96187-1.6773-0.99655-0.73008-0.03285-1.431 0.32853-1.9913 0.99655a4.4078 4.4078 0 0 0 -0.66 1.0679c-0.0401 0.09126-0.0785 0.18252-0.11681 0.28473a13.598 13.598 0 0 0 -0.69539 2.9057c-0.13142 0.87974-0.22085 1.8252-0.28291 2.7998-0.14784 2.3162-0.14236 4.7619-0.13689 6.7112v0.04563h0.12959v0.0219h5.3843"/>
  <path fill="#ed1c24" d="m108.35 27.635a3.4277 3.4277 0 0 0 2.0205 0.64612c0.64064-0.0201 1.305-0.0438 2.0205-0.6662-0.87062 3.5244-1.4456 5.7366-2.0205 8.2134-0.62604-2.4111-0.99838-4.0537-2.0205-8.1933z"/>
  <path fill="#ed1c24" d="m110.37 35.995a0.18252 0.18252 0 0 1 -0.16975 -0.13141c-0.38876-1.4912-0.68262-2.6995-1.0951-4.3713-0.25005-1.0294-0.54755-2.2432-0.93267-3.8165a0.18252 0.18252 0 0 1 0.27743 -0.18252 3.2434 3.2434 0 0 0 1.9073 0.60961c0.60779-0.0182 1.2356-0.0365 1.911-0.62239a0.18252 0.18252 0 0 1 0.28473 0.18252c-0.30115 1.2192-0.56581 2.2815-0.80856 3.2525-0.46725 1.8654-0.83411 3.3383-1.2101 4.9499a0.18252 0.18252 0 0 1 -0.16791 0.13507zm-1.7449-7.9761c0.33766 1.3707 0.60048 2.4567 0.82863 3.3912 0.34131 1.4072 0.60231 2.4841 0.9126 3.6778 0.32123-1.3579 0.64976-2.6666 1.0495-4.2655 0.2099-0.84324 0.43987-1.7558 0.69175-2.7816-0.61874 0.37964-1.2028 0.39607-1.7285 0.4125a3.6723 3.6723 0 0 1 -1.754 -0.4344z"/>
  <path d="m110.59 15.686h1.7029c0.261 0 0.34131 0.18252 0.34131 0.39424v0.28655a0.33036 0.33036 0 0 1 -0.34131 0.33948h-1.7029"/>
  <path d="m113.6 18.068v-2.0077c0-0.30846 0.20807-0.40154 0.44534-0.40154h0.32489a0.38146 0.38146 0 0 1 0.38146 0.40154v2.0077"/>
  <path d="m113.6 14.417v-0.91259c0-0.30846 0.20807-0.40154 0.44534-0.40154h0.32489a0.38146 0.38146 0 0 1 0.38146 0.40154v0.91259"/>
  <path d="m114.75 13.47v0.91259c0 0.30846-0.20807 0.40154-0.44534 0.40154h-0.32489a0.38146 0.38146 0 0 1 -0.38511 -0.40154v-0.91259"/>
  <path d="m98.998 14.417v-0.91259c0-0.30846 0.20807-0.40154 0.44534-0.40154h0.32489a0.38146 0.38146 0 0 1 0.38146 0.40154v0.91259"/>
  <path d="m100.15 13.47v0.91259c0 0.30846-0.20807 0.40154-0.44535 0.40154h-0.32488a0.38146 0.38146 0 0 1 -0.38511 -0.40154v-0.91259"/>
 </g>
</svg>
