<svg xmlns="http://www.w3.org/2000/svg" height="1080" width="768" version="1.1" viewBox="0 0 203.2 285.75">
 <path d="m40.972 315.94c-0.118-2.2868-1.7116-4.3383-2.9233-5.2619-2.6929-11.365 0.88332-16.461 3.8002-22.217 3.8757-1.691 6.5621-5.4212 8.3008-10.732 2.614-7.9838 6.4385-14.435 11.822-24.648 2.3767-4.5087 5.769-8.2356 8.9838-12.041 3.0587-3.6204 3.9137-7.3029 4.8145-11.036 8.8506-7.9546 18.567-13.71 28.657-18.311 4.5973 2.6681 8.2464 2.9451 11.649 2.0518 13.223-3.4711 24.26-4.6909 34.613-4.717 4.7406-0.0119 6.3427-1.0085 7.9465-3.1887 4.7611-0.49186 8.6393 0.54734 12.306 0.84402 3.7302 4.7991 10.288 6.4133 16.83 8.742 3.564 1.2687 7.9751 2.2036 10.228 0.85795 4.8373 0.61054 13.861 5.4578 16.175 9.9113-0.35418 1.4406-1.2102 3.2586 0.14616 5.2619 3.2066 4.736 5.9005 6.6044 9.828 10.424 4.1113 3.9987 8.1838 2.0005 12.096 1.8534 3.2483 2.6839 6.0137 5.6313 7.8928 9.0621-1.96 3.7116-5.2774 8.905-1.754 13.885 10.814 15.285 13.942 22.605 16.809 37.564 1.0027 5.2326 3.0239 7.8487 5.408 10.378 0.94718 9.7763 0.0262 15.069-0.73081 20.755-4.8532 2.5844-10.222 5.4701-13.155 12.57-1.5348 3.7156-1.7771 7.593-1.5142 11.892-1.2886 6.0611-4.4192 13.185-10.29 21.889-2.3851 0.59842-6.0959 0.25362-7.4836 3.9289-4.3 11.388-11.397 18.131-19.877 24.089-2.9526 2.0746-4.4332 4.3841-5.4577 6.6275-12.566 10.296-25.259 14.031-40.334 13.436-2.0183-1.0828-4.0453-2.3784-6.7352-2.058-16.533 1.9697-33.337-0.76457-50.14-5.7998-3.3568-1.0059-7.0716-1.494-11.412-0.74836l-8.9802-4.8643c0.47018-3.5867 0.58879-6.0264-1.784-8.5266-4.0322-4.2488-6.63-7.3928-10.751-12.147-2.0082-2.3166-6.7388-3.17-8.419-5.1449l-10.664-12.535c-2.1027-2.4716-4.4901-3.3375-6.7352-3.9289-3.7341-5.4879-6.469-10.976-8.9803-16.464 2.3293-2.9564 2.9782-6.4723 2.1778-10.284-3.2788-15.615-1.9388-23.114-2.3649-31.372z" stroke="none"/>
 <g stroke-linecap="round" fill="none">
  <path d="m140.2 81.813-6.7739-8.2872-10.667 0.88204 5.7884-9.0033-4.1352-9.8724 10.351 2.7229 8.1114-6.9835 0.6091 10.686 9.1483 5.5564-9.9749 3.8815z" stroke-width="5.1255"/>
  <path d="m178.26 88.747-1.4302-5.2725-5.1541-1.8109 4.5725-2.9895 0.12955-5.4615 4.256 3.4248 5.2342-1.5644-1.942 5.1061 3.1053 4.4946-5.4564-0.26911z" stroke-width="2.616"/>
  <path d="m167.03 52.226-1.7198-5.3745-5.4024-1.6302 4.58-3.2964-0.11903-5.6418 4.5504 3.3372 5.3288-1.8566-1.7677 5.3589 3.4124 4.4943-5.643-0.02516z" stroke-width="2.7022"/>
  <path d="m167.7 174.95 3.9208-6.4993-3.1312-6.9144 7.3928 1.7206 5.6084-5.1146 0.6481 7.5624 6.5974 3.7534-6.9921 2.9534-1.531 7.4344-4.9696-5.7373z" stroke-width="3.6348"/>
  <path d="m146.85 192.24-3.1738-3.8828-4.9978 0.41326 2.712-4.2183-1.9374-4.6255 4.8499 1.2758 3.8004-3.272 0.28538 5.0068 4.2862 2.6033-4.6735 1.8186z" stroke-width="2.4015"/>
  <path d="m84.833 45.561-7.1252-2.2105-5.8603 4.6164-0.09953-7.4596-6.2015-4.1469 7.0636-2.3997 2.0277-7.1794 4.4651 5.9764 7.4546-0.29015-4.3041 6.0935z" stroke-width="3.5725"/>
  <path d="m183.59 115.6-2.309-2.8405-3.6489 0.29174 1.988-3.0738-1.405-3.3802 3.5375 0.94082 2.7806-2.3808 0.19839 3.6551 3.1235 1.9088-3.415 1.3182z" stroke-width="1.7529"/>
 </g>
</svg>
