<svg xmlns="http://www.w3.org/2000/svg" height="1080" width="768" version="1.1" viewBox="0 0 203.20005 285.75">
 <g fill="#45115f" transform="matrix(1.1176 -.29947 .29947 1.1176 -40.46 56.694)">
  <path d="m578.92 206.8c-28.2-0.50221-61.524 3.7745-95.68 12.908-37.995 10.201-71.779 25.157-96.924 41.693a56.092 54.563 75 0 1 0.70507 0.72461 56.092 54.563 75 0 1 3.4766 4.3652 56.092 54.563 75 0 1 3.0371 4.6953 56.092 54.563 75 0 1 2.5703 4.9766 56.092 54.563 75 0 1 2.0742 5.2031 56.092 54.563 75 0 1 1.1602 3.7988 56.092 54.563 75 0 1 1.1856 5.4805 56.092 54.563 75 0 1 0 0.002 56.092 54.563 75 0 1 0.64649 5.5645 56.092 54.563 75 0 1 0.10351 5.5957 56.092 54.563 75 0 1 -0.44141 5.5723 56.092 54.563 75 0 1 -0.98632 5.4883 56.092 54.563 75 0 1 -1.0606 3.7363c30.465 2.0972 68.15-1.8101 107.13-12.246 54.599-14.644 101.18-38.99 124.67-63.982 5.6959-6.059 10.076-12.156 12.838-18.162-5.3879-3.8453-12.236-6.9526-20.213-9.3672-12.303-3.7243-27.379-5.7456-44.299-6.0469zm-16.146 14.402a2.893 2.893 0 0 1 0.28711 0.0215 2.893 2.893 0 0 1 0.28515 0.0508 2.893 2.893 0 0 1 0.2793 0.0781 2.893 2.893 0 0 1 0.26758 0.10742 2.893 2.893 0 0 1 0.25781 0.13086 2.893 2.893 0 0 1 0.24219 0.15821 2.893 2.893 0 0 1 0.22656 0.17968 2.893 2.893 0 0 1 0.20703 0.20313 2.893 2.893 0 0 1 0.18555 0.2207 2.893 2.893 0 0 1 0.16211 0.24024 2.893 2.893 0 0 1 0.13672 0.2539 2.893 2.893 0 0 1 0.11133 0.26758 2.893 2.893 0 0 1 0.0859 0.27539l1.7207 6.4277a2.893 2.893 0 0 1 0.01 0.0273 2.893 2.893 0 0 1 0.0664 0.28125 2.893 2.893 0 0 1 0.0391 0.28711 2.893 2.893 0 0 1 0.0117 0.28906 2.893 2.893 0 0 1 -0.0195 0.28906 2.893 2.893 0 0 1 -0.0469 0.28516 2.893 2.893 0 0 1 -0.0762 0.2793 2.893 2.893 0 0 1 -0.10156 0.26953 2.893 2.893 0 0 1 -0.13086 0.25976 2.893 2.893 0 0 1 -0.1543 0.24414 2.893 2.893 0 0 1 -0.17773 0.22657 2.893 2.893 0 0 1 -0.20117 0.20898 2.893 2.893 0 0 1 -0.21875 0.1875 2.893 2.893 0 0 1 -0.23829 0.16602 2.893 2.893 0 0 1 -0.25195 0.14062 2.893 2.893 0 0 1 -0.26562 0.11328 2.893 2.893 0 0 1 -0.27539 0.0879 2.893 2.893 0 0 1 -0.28321 0.0586 2.893 2.893 0 0 1 -0.28906 0.0312 2.893 2.893 0 0 1 -0.28906 0.002 2.893 2.893 0 0 1 -0.28711 -0.0273 2.893 2.893 0 0 1 -0.28321 -0.0547 2.893 2.893 0 0 1 -0.27734 -0.084 2.893 2.893 0 0 1 -0.26758 -0.11132 2.893 2.893 0 0 1 -0.2539 -0.13672 2.893 2.893 0 0 1 -0.24024 -0.16211 2.893 2.893 0 0 1 -0.22265 -0.18359 2.893 2.893 0 0 1 -0.20313 -0.20704 2.893 2.893 0 0 1 -0.18164 -0.22461 2.893 2.893 0 0 1 -0.15625 -0.24218 2.893 2.893 0 0 1 -0.13281 -0.25782 2.893 2.893 0 0 1 -0.10742 -0.26757 2.893 2.893 0 0 1 -0.0801 -0.2793l-1.7207-6.4258a2.893 2.893 0 0 1 -0.0488 -0.19727 2.893 2.893 0 0 1 -0.0449 -0.28515 2.893 2.893 0 0 1 -0.0176 -0.28907 2.893 2.893 0 0 1 0.0117 -0.28906 2.893 2.893 0 0 1 0.041 -0.28515 2.893 2.893 0 0 1 0.0703 -0.28126 2.893 2.893 0 0 1 0.0977 -0.27343 2.893 2.893 0 0 1 0.12305 -0.25977 2.893 2.893 0 0 1 0.14843 -0.24804 2.893 2.893 0 0 1 0.17383 -0.23243 2.893 2.893 0 0 1 0.19532 -0.21289 2.893 2.893 0 0 1 0.21679 -0.1914 2.893 2.893 0 0 1 0.23242 -0.16993 2.893 2.893 0 0 1 0.25 -0.14648 2.893 2.893 0 0 1 0.26368 -0.12109 2.893 2.893 0 0 1 0.27343 -0.0918 2.893 2.893 0 0 1 0.006 -0.002 2.893 2.893 0 0 1 0.28321 -0.0645 2.893 2.893 0 0 1 0.28711 -0.0371 2.893 2.893 0 0 1 0.28906 -0.008zm-11.963 1.1953a2.893 2.893 0 0 1 0.28906 0.0215 2.893 2.893 0 0 1 0.28516 0.0488 2.893 2.893 0 0 1 0.27734 0.0781 2.893 2.893 0 0 1 0.26953 0.10547 2.893 2.893 0 0 1 0.25781 0.13086 2.893 2.893 0 0 1 0.24414 0.15625 2.893 2.893 0 0 1 0.22657 0.17969 2.893 2.893 0 0 1 0.20703 0.20312 2.893 2.893 0 0 1 0.18554 0.22071 2.893 2.893 0 0 1 0.16211 0.23828 2.893 2.893 0 0 1 0.13868 0.2539 2.893 2.893 0 0 1 0.11328 0.26758 2.893 2.893 0 0 1 0.084 0.27539l1.7246 6.4356a2.8955 2.8955 0 0 1 0.0293 0.11719 2.8955 2.8955 0 0 1 0.0488 0.28515 2.8955 2.8955 0 0 1 0.0195 0.28906 2.8955 2.8955 0 0 1 -0.008 0.28907 2.8955 2.8955 0 0 1 -0.0371 0.28711 2.8955 2.8955 0 0 1 -0.0664 0.28125 2.8955 2.8955 0 0 1 -0.0937 0.27343 2.8955 2.8955 0 0 1 -0.12109 0.26368 2.8955 2.8955 0 0 1 -0.14649 0.25 2.8955 2.8955 0 0 1 -0.16992 0.23437 2.8955 2.8955 0 0 1 -0.19336 0.21484 2.8955 2.8955 0 0 1 -0.21289 0.19532 2.8955 2.8955 0 0 1 -0.23242 0.17383 2.8955 2.8955 0 0 1 -0.24805 0.14843 2.8955 2.8955 0 0 1 -0.26172 0.12305 2.8955 2.8955 0 0 1 -0.27148 0.0977 2.8955 2.8955 0 0 1 -0.28125 0.0684 2.8955 2.8955 0 0 1 -0.28711 0.041 2.8955 2.8955 0 0 1 -0.28907 0.0117 2.8955 2.8955 0 0 1 -0.28906 -0.0156 2.8955 2.8955 0 0 1 -0.28515 -0.0469 2.8955 2.8955 0 0 1 -0.28125 -0.0742 2.8955 2.8955 0 0 1 -0.26954 -0.10156 2.8955 2.8955 0 0 1 -0.25976 -0.12891 2.8955 2.8955 0 0 1 -0.24609 -0.15234 2.8955 2.8955 0 0 1 -0.22852 -0.17774 2.8955 2.8955 0 0 1 -0.21094 -0.19922 2.8955 2.8955 0 0 1 -0.1875 -0.21874 2.8955 2.8955 0 0 1 -0.16601 -0.23633 2.8955 2.8955 0 0 1 -0.14258 -0.25391 2.8955 2.8955 0 0 1 -0.11524 -0.26367 2.8955 2.8955 0 0 1 -0.0898 -0.27735l-1.7246-6.4336a2.893 2.893 0 0 1 -0.0469 -0.19726 2.893 2.893 0 0 1 -0.0449 -0.28516 2.893 2.893 0 0 1 -0.0156 -0.28906 2.893 2.893 0 0 1 0.0137 -0.28907 2.893 2.893 0 0 1 0.041 -0.28515 2.893 2.893 0 0 1 0.0703 -0.28125 2.893 2.893 0 0 1 0.0977 -0.27149 2.893 2.893 0 0 1 0.125 -0.26171 2.893 2.893 0 0 1 0.15039 -0.2461 2.893 2.893 0 0 1 0.17382 -0.23242 2.893 2.893 0 0 1 0.19532 -0.21289 2.893 2.893 0 0 1 0.21679 -0.19141 2.893 2.893 0 0 1 0.23438 -0.16992 2.893 2.893 0 0 1 0.25 -0.14453 2.893 2.893 0 0 1 0.26367 -0.11914 2.893 2.893 0 0 1 0.27344 -0.0918 2.893 2.893 0 0 1 0.2793 -0.0664 2.893 2.893 0 0 1 0.2871 -0.0352 2.893 2.893 0 0 1 0.28907 -0.01zm-11.754 1.9414a2.893 2.893 0 0 1 0.28906 0.0215 2.893 2.893 0 0 1 0.28516 0.0508 2.893 2.893 0 0 1 0.27734 0.0781 2.893 2.893 0 0 1 0.26953 0.10547 2.893 2.893 0 0 1 0.25782 0.13281 2.893 2.893 0 0 1 0.24218 0.15625 2.893 2.893 0 0 1 0.22461 0.18164 2.893 2.893 0 0 1 0.20704 0.20117 2.893 2.893 0 0 1 0.18554 0.22266 2.893 2.893 0 0 1 0.16211 0.23828 2.893 2.893 0 0 1 0.13867 0.25586 2.893 2.893 0 0 1 0.11133 0.26563 2.893 2.893 0 0 1 0.084 0.27734l1.7226 6.4277a2.893 2.893 0 0 1 0.008 0.0274 2.893 2.893 0 0 1 0.0684 0.28125 2.893 2.893 0 0 1 0.0391 0.28711 2.893 2.893 0 0 1 0.01 0.28906 2.893 2.893 0 0 1 -0.0176 0.28711 2.893 2.893 0 0 1 -0.0488 0.28516 2.893 2.893 0 0 1 -0.0742 0.27929 2.893 2.893 0 0 1 -0.10352 0.27149 2.893 2.893 0 0 1 -0.12891 0.25781 2.893 2.893 0 0 1 -0.15429 0.24414 2.893 2.893 0 0 1 -0.17969 0.22852 2.893 2.893 0 0 1 -0.19922 0.20898 2.893 2.893 0 0 1 -0.2207 0.1875 2.893 2.893 0 0 1 -0.23633 0.16406 2.893 2.893 0 0 1 -0.25391 0.14063 2.893 2.893 0 0 1 -0.26562 0.11523 2.893 2.893 0 0 1 -0.27539 0.0859 2.893 2.893 0 0 1 -0.2832 0.0605 2.893 2.893 0 0 1 -0.28711 0.0312 2.893 2.893 0 0 1 -0.28907 0.002 2.893 2.893 0 0 1 -0.28906 -0.0273 2.893 2.893 0 0 1 -0.2832 -0.0566 2.893 2.893 0 0 1 -0.27735 -0.082 2.893 2.893 0 0 1 -0.26562 -0.11132 2.893 2.893 0 0 1 -0.25586 -0.13672 2.893 2.893 0 0 1 -0.23828 -0.16211 2.893 2.893 0 0 1 -0.22266 -0.18555 2.893 2.893 0 0 1 -0.20312 -0.20508 2.893 2.893 0 0 1 -0.18164 -0.22656 2.893 2.893 0 0 1 -0.15821 -0.24219 2.893 2.893 0 0 1 -0.13281 -0.25586 2.893 2.893 0 0 1 -0.10547 -0.26953 2.893 2.893 0 0 1 -0.0801 -0.27734l-1.7226-6.4277a2.893 2.893 0 0 1 -0.0488 -0.19531 2.893 2.893 0 0 1 -0.0449 -0.28711 2.893 2.893 0 0 1 -0.0156 -0.28711 2.893 2.893 0 0 1 0.0117 -0.28906 2.893 2.893 0 0 1 0.041 -0.28711 2.893 2.893 0 0 1 0.0684 -0.28125 2.893 2.893 0 0 1 0.0976 -0.27148 2.893 2.893 0 0 1 0.12305 -0.26172 2.893 2.893 0 0 1 0.15039 -0.24805 2.893 2.893 0 0 1 0.17383 -0.23047 2.893 2.893 0 0 1 0.19531 -0.21289 2.893 2.893 0 0 1 0.21485 -0.19336 2.893 2.893 0 0 1 0.23437 -0.16992 2.893 2.893 0 0 1 0.25 -0.14648 2.893 2.893 0 0 1 0.26172 -0.11914 2.893 2.893 0 0 1 0.27539 -0.0938 2.893 2.893 0 0 1 0.006 -0.002 2.893 2.893 0 0 1 0.28125 -0.0644 2.893 2.893 0 0 1 0.28711 -0.0352 2.893 2.893 0 0 1 0.28906 -0.008z" transform="matrix(.22087 .059183 -.059183 .22087 46.458 -38.278)"/>
  <path d="m125.38 33.768c-5.9961-0.41105-11.324 0.25822-16.456 2.3051 4.9521 1.0766 10.025 3.7054 11.433 6.4171 4.8886-1.1063 8.4929-1.697 13.206-2.0043-1.8292-2.9706-5.3922-6.0295-8.1833-6.7179z"/>
  <path d="m125.38 64.002c-5.9961 0.41105-11.324-0.25822-16.456-2.3051 4.9521-1.0766 10.025-3.7054 11.433-6.4171 4.8886 1.1063 8.4929 1.697 13.206 2.0043-1.8292 2.9706-5.3922 6.0295-8.1833 6.7179z"/>
 </g>
 <g stroke="#45115f" stroke-linecap="round" fill="none">
  <path transform="matrix(.57257 -.39745 .39745 .57257 -213.62 204.3)" stroke-width="5.1255" d="m424.17 41.186-6.7739-8.2872-10.667 0.88204 5.7884-9.0033-4.1352-9.8724 10.351 2.7229 8.1114-6.9835 0.60911 10.686 9.1483 5.5564-9.9749 3.8815z"/>
  <path transform="matrix(.47507 -.087744 .087744 .47507 -130.3 69.803)" stroke-width="5.1255" d="m424.17 41.186-6.7739-8.2872-10.667 0.88204 5.7884-9.0033-4.1352-9.8724 10.351 2.7229 8.1114-6.9835 0.60911 10.686 9.1483 5.5564-9.9749 3.8815z"/>
  <path stroke-width="1.8742" d="m46.636 247.81-2.477-3.0303-3.9006 0.32253 2.1166-3.2922-1.5121-3.61 3.7851 0.99566 2.966-2.5536 0.22273 3.9075 3.3452 2.0318-3.6475 1.4193z"/>
  <path transform="rotate(-33.962 32.887 326.19)" stroke-width="2.4015" d="m64.595 270.76-3.1738-3.8828-4.9978 0.41326 2.712-4.2183-1.9374-4.6255 4.8499 1.2758 3.8004-3.272 0.28538 5.0068 4.2862 2.6033-4.6735 1.8186z"/>
  <path transform="rotate(-50.687 70.142 293.46)" stroke-width="1.8742" d="m84.21 273.32-2.477-3.0303-3.9006 0.32253 2.1166-3.2922-1.5121-3.61 3.7851 0.99567 2.966-2.5536 0.22273 3.9075 3.3452 2.0318-3.6475 1.4193z"/>
 </g>
 <path d="m95.168 78.867l-1.4061-5.4547c-11.74 3.0263-30.991 11.393-46.39 29.385-5.8242 6.8049-10.836 14.782-14.053 23.705-3.0736 8.5268-4.4365 17.731-3.4226 27.303 1.0146 9.5784 4.3754 19.222 10.342 28.724 6.2603 9.9695 15.21 19.503 26.745 28.53 15.029 11.761 33.654 22.047 54.374 31.037 20.662 8.9649 42.02 16.041 60.868 21.578-39.66-11.65-84.035-29.291-113.84-54.342-11.079-9.3114-19.329-18.971-24.804-28.785-5.2061-9.3324-7.7136-18.466-8.0667-27.162-0.35226-8.6749 1.4427-16.796 4.6665-24.164 3.383-7.7315 8.3064-14.565 13.892-20.353 7.2624-7.5257 15.465-13.123 23.004-17.053 7.5571-3.939 14.334-6.1629 19.498-7.494l-1.4061-5.4547z" fill="#45115f"/>
 <ellipse rx="4.349" ry="5.5308" transform="rotate(-16.382)" cy="102.5" cx="69.062" fill="#45115f"/>
</svg>
