<svg xmlns="http://www.w3.org/2000/svg" height="127.04" width="127.05" version="1.1" viewBox="0 0 33.614418 33.613459">
 <g transform="translate(-90.845 -191.99)">
  <flowRoot style="word-spacing:0px;letter-spacing:0px" xml:space="preserve" font-size="40px" transform="matrix(.26458 0 0 .26458 62.862 68.628)" line-height="1.25" font-family="Roboto" fill="#000000"><flowRegion><rect y="328" width="130" x="3594" height="140"/></flowRegion><flowPara/></flowRoot>
  <g transform="matrix(.98797 0 0 .98797 2.7189 2.8176)">
   <g transform="matrix(.73846 0 0 .73846 83.622 26.984)">
    <g transform="translate(-105.07 28.874)">
     <path d="m125.25 217.51-0.78802 14.349h2.6518l0.97726-10.929v-3.42zm5.6826 0.006 0.75972 14.351-2.6517-0.005-0.95571-10.931 0.007-3.42z" fill="#ccc"/>
     <g transform="matrix(.64610 0 0 .64610 61.334 88.889)">
      <path fill="#fff" d="m103.32 183.61-5.0837 1.4542-6.6051 14.298 3.3982 1.0336 3.2069-6.7263v2.8437l-1.7926 12.707h13.753l-1.7926-12.707v-2.8437l3.2069 6.7263 3.3982-1.0336-6.6051-14.298z"/>
      <path d="m100.28 183.12c-0.15118 1.216-0.20278 2.4719-0.13351 3.7761l1.0418-0.33073-0.1323 0.59532c0.81928 0.53712 1.532 0.8611 2.2681 1.2318l-0.89764-3.9826z" fill="#e6e6e6"/>
      <path d="m106.37 183.12c0.15118 1.216 0.20278 2.4719 0.13351 3.7761l-1.0418-0.33073 0.1323 0.59532c-0.81928 0.53712-1.532 0.8611-2.2681 1.2318l0.89764-3.9826z" fill="#e6e6e6"/>
      <path d="m103.32 188.39c-1.2444-1.2216-2.3572-2.7499-3.044-5.2724 0.90888-0.34282 1.7934-0.71003 3.044-0.71107m0 5.9835c1.2444-1.2216 2.3572-2.7499 3.044-5.2724-0.90888-0.34282-1.7934-0.71003-3.044-0.71107" fill="#b3b3b3"/>
      <path d="m104.59 189.82v2.0525c0 0.80489 0.65251 1.4574 1.4574 1.4574s1.4574-0.65251 1.4574-1.4574v-2.0525z" fill="#b3b3b3"/>
     </g>
     <path d="m131.02 205.15c-0.15423 1.5959-1.1043 3.6766-2.7002 3.5224-1.5959-0.15423-3.2333-2.485-3.0791-4.0809 0.15423-1.5959 1.573-2.7646 3.1689-2.6104 1.5959 0.15423 2.7646 1.573 2.6104 3.1689z" fill="#ececec"/>
     <g transform="matrix(.80590 0 0 .80590 55.282 56.479)">
      <path d="m106.72 201.36-0.89304 16.262h3.0051l1.1075-12.386v-3.8757zm6.44 0.006 0.86095 16.263-3.0051-0.006-1.0831-12.388 0.008-3.8757z" fill="#ccc"/>
      <g transform="matrix(.73220 0 0 .73220 34.285 55.607)">
       <path fill="#fff" d="m103.32 183.61-5.0837 1.4542-6.6051 14.298 3.3982 1.0336 3.2069-6.7263v2.8437l-1.7926 12.707h13.753l-1.7926-12.707v-2.8437l3.2069 6.7263 3.3982-1.0336-6.6051-14.298z"/>
       <path fill="#e6e6e6" d="m100.28 183.12c-0.15118 1.216-0.20278 2.4719-0.13351 3.7761l1.0418-0.33073-0.1323 0.59532c0.81928 0.53712 1.532 0.8611 2.2681 1.2318l-0.89764-3.9826z"/>
       <path d="m106.37 183.12c0.15118 1.216 0.20278 2.4719 0.13351 3.7761l-1.0418-0.33073 0.1323 0.59532c-0.81928 0.53712-1.532 0.8611-2.2681 1.2318l0.89764-3.9826z" fill="#e6e6e6"/>
       <path d="m103.32 188.39c-1.2444-1.2216-2.3572-2.7499-3.044-5.2724 0.90888-0.34282 1.7934-0.71003 3.044-0.71107m0 5.9835c1.2444-1.2216 2.3572-2.7499 3.044-5.2724-0.90888-0.34282-1.7934-0.71003-3.044-0.71107" fill="#b3b3b3"/>
       <path fill="#b3b3b3" d="m104.59 189.82v2.0525c0 0.80489 0.65251 1.4574 1.4574 1.4574s1.4574-0.65251 1.4574-1.4574v-2.0525z"/>
      </g>
      <path fill="#ececec" d="m106.76 186.54c-0.27868 1.7955 0.18034 4.3468 1.9758 4.6254 1.7955 0.27868 4.2476-1.8207 4.5262-3.6162 0.27868-1.7955-0.95095-3.477-2.7464-3.7556-1.7955-0.27868-3.477 0.95096-3.7556 2.7465z"/>
     </g>
    </g>
   </g>
  </g>
 </g>
</svg>
